<svg width="1600" height="900" viewBox="0 0 1600 900" fill="none" xmlns="http://www.w3.org/2000/svg">
  <rect width="1600" height="900" fill="#070A10"/>
  <rect width="1600" height="900" fill="url(#paint0_radial)"/>
  <g opacity="0.2" stroke="white" stroke-width="2">
    <path d="M250 104L322 146V230L250 272L178 230V146L250 104Z"/>
    <path d="M394 104L466 146V230L394 272L322 230V146L394 104Z"/>
    <path d="M322 230L394 272V356L322 398L250 356V272L322 230Z"/>
    <path d="M1184 500L1256 542V626L1184 668L1112 626V542L1184 500Z"/>
    <path d="M1328 500L1400 542V626L1328 668L1256 626V542L1328 500Z"/>
    <path d="M1256 626L1328 668V752L1256 794L1184 752V668L1256 626Z"/>
  </g>
  <rect x="120" y="690" width="560" height="1" fill="white" fill-opacity="0.18"/>
  <text x="120" y="760" fill="white" fill-opacity="0.78" font-family="Barlow, Arial, sans-serif" font-size="24" letter-spacing="8">ADICIONE A IMAGEM DO HERO DE FUNILARIA AQUI</text>
  <defs>
    <radialGradient id="paint0_radial" cx="0" cy="0" r="1" gradientUnits="userSpaceOnUse" gradientTransform="translate(1210 215) rotate(143.337) scale(745.184 426.127)">
      <stop stop-color="#F4C542" stop-opacity="0.18"/>
      <stop offset="1" stop-color="#070A10" stop-opacity="0"/>
    </radialGradient>
  </defs>
</svg>
